<?xml version="1.0"?>
<svg xmlns="http://www.w3.org/2000/svg" xmlns:xlink="http://www.w3.org/1999/xlink" version="1.1" id="Capa_1" x="0px" y="0px" viewBox="0 0 511.984 511.984" style="enable-background:new 0 0 511.984 511.984;" xml:space="preserve" width="512px" height="512px" class=""><g><g>
	<path d="M478.164,306.897c-2.006-2.293-5.139-3.246-8.085-2.46l-93.681,25.035c-0.581,0.155-1.136,0.375-1.658,0.652   c-10.257,4.343-16.237,15.257-14.291,26.344c2.008,11.433,12.283,19.731,24.432,19.731h3.471   c-28.747,29.667-67.124,49.006-108.335,54.404V216.103h0.005c4.418,0,8-3.582,8-8s-3.582-8-8-8h-0.005v-16.019h23.161   c12.134,0,22.686-8.613,24.544-20.035c1.145-7.032-0.82-14.148-5.391-19.522c-4.573-5.378-11.241-8.462-18.295-8.462h-24.02   v-12.709c28.075-11.34,44.59-41.061,38.879-71.568c-4.731-25.279-24.847-45.591-50.055-50.543   c-19.125-3.76-38.61,1.093-53.46,13.309c-14.875,12.237-23.407,30.267-23.407,49.464c0,26.036,16.187,49.627,40.024,59.329v12.719   h-23.161c-12.134,0-22.686,8.613-24.544,20.035c-1.145,7.032,0.82,14.147,5.391,19.522c4.573,5.378,11.241,8.462,18.295,8.462   h24.019v16.019h-0.005c-4.418,0-8,3.582-8,8s3.582,8,8,8h0.005v214.501c-41.211-5.398-79.588-24.737-108.335-54.404h3.471   c12.149,0,22.424-8.299,24.432-19.732c1.943-11.07-4.017-21.97-14.248-26.325c-0.535-0.285-1.105-0.511-1.701-0.67l-93.712-25.035   c-2.945-0.787-6.082,0.169-8.088,2.463c-2.006,2.296-2.534,5.531-1.361,8.345l9.248,22.174   c16.663,39.953,43.957,74.329,78.93,99.412c33.458,23.996,72.686,38.604,113.749,42.402l9.711,24.641   c1.942,4.927,6.619,8.11,11.915,8.11c5.296,0,9.973-3.184,11.915-8.11l9.711-24.641c41.063-3.799,80.29-18.406,113.749-42.402   c34.974-25.083,62.267-59.459,78.933-99.421l9.217-22.174C480.701,312.422,480.171,309.189,478.164,306.897z M207.974,64.017   c0-14.396,6.405-27.921,17.572-37.107c11.141-9.165,25.797-12.795,40.21-9.966c18.84,3.702,33.875,18.888,37.413,37.787   c4.578,24.456-9.8,48.228-33.443,55.295c-3.388,1.013-5.709,4.129-5.709,7.665v18.374h-16.019v-18.374   c0-3.536-2.321-6.652-5.709-7.665C222.085,103.987,207.974,85.067,207.974,64.017z M239.998,168.084h-32.019   c-2.354,0-4.579-1.03-6.107-2.827c-1.547-1.819-2.182-4.159-1.787-6.587c0.603-3.704,4.447-6.605,8.752-6.605h31.161h32.019h32.02   c2.353,0,4.579,1.03,6.106,2.827c1.548,1.82,2.183,4.159,1.788,6.587c-0.603,3.704-4.447,6.605-8.752,6.605h-31.161   c-4.418,0-8,3.582-8,8v24.019h-16.019v-24.019C247.998,171.666,244.416,168.084,239.998,168.084z M455.544,331.26   c-15.518,37.208-40.929,69.218-73.487,92.568c-32.42,23.252-70.667,37.034-110.604,39.856c-3.074,0.218-5.749,2.181-6.879,5.047   l-8.566,21.736l-8.567-21.736c-1.13-2.866-3.805-4.829-6.879-5.047c-39.938-2.822-78.184-16.604-110.604-39.856   C97.4,400.478,71.988,368.468,56.47,331.26l-2.99-7.17l77.178,20.618c0.022,0.008,0.044,0.017,0.066,0.024   c3.008,1.13,5.881,4.418,5.083,8.968c-0.65,3.705-4.379,6.499-8.673,6.499h-21.159c-3.074,0-5.876,1.762-7.209,4.531   c-1.333,2.77-0.96,6.059,0.958,8.461c34.091,42.691,84.979,69.767,139.615,74.282c2.231,0.185,4.433-0.573,6.078-2.088   s2.581-3.648,2.581-5.885V216.103h16.019v223.398c0,2.236,0.936,4.37,2.581,5.885c1.645,1.516,3.847,2.281,6.078,2.088   c54.637-4.516,105.525-31.591,139.616-74.282c1.918-2.402,2.29-5.691,0.958-8.461c-1.333-2.77-4.135-4.531-7.209-4.531h-21.159   c-4.294,0-8.022-2.794-8.673-6.498c-0.799-4.551,2.075-7.839,5.083-8.969c0.022-0.008,0.044-0.017,0.066-0.024l77.169-20.623   L455.544,331.26z" data-original="#000000" class="active-path" data-old_color="#000000" fill="#006494"/>
	<path d="M288.022,64.017c0-17.652-14.361-32.014-32.014-32.014s-32.015,14.361-32.015,32.014c0,17.653,14.362,32.015,32.015,32.015   S288.022,81.67,288.022,64.017z M239.993,64.017c0-8.83,7.184-16.014,16.015-16.014c8.83,0,16.014,7.184,16.014,16.014   s-7.184,16.015-16.014,16.015C247.177,80.031,239.993,72.847,239.993,64.017z" data-original="#000000" class="active-path" data-old_color="#000000" fill="#006494"/>
</g></g> </svg>
