<svg height="512" viewBox="0 0 58 58" width="512" xmlns="http://www.w3.org/2000/svg"><g id="Page-1" fill="none" fill-rule="evenodd"><g id="013---Reef" fill-rule="nonzero" transform="translate(-1)"><path id="Shape" d="m32.67 29.83c-2.0552842 2.4013186-4.8529942 4.0482725-7.95 4.68-.4708044.11644-.7881657.5565143-.75 1.04.05.77.07 1.55.07 2.31.0522857 4.9794693-.6765668 9.936341-2.16 14.69l-11.95-4.03c1.3504711-2.3356498 2.3638386-4.850552 3.01-7.47-3.32027782-.1809033-6.47251927-1.5182178-8.91-3.78-1.10943312-1.0065071-1.33317292-2.6655588-.53-3.93.49802521-.7491076 1.30591656-1.2352009 2.20104115-1.3243259.89512458-.0891249 1.78300255.2281256 2.41895885.8643259 1.34950981 1.2541978 3.0833512 2.0153965 4.92 2.16.0696431.0099966.1403569.0099966.21 0 .4832819-.064495.8526119-.4632034.88-.95.02-.35.04-.69.04-.98 0-.17 0-.32-.01-.46.0052604-1.910474-.2401675-3.8133807-.73-5.66-.1256735-.4501069-.542946-.7558313-1.01-.74-2.42469988.124118-4.83389868-.4521457-6.94-1.66-1.31763813-.8186522-1.82278189-2.4881951-1.18-3.9.37905287-.7781931 1.07526894-1.3551343 1.91032549-1.5830512.83505654-.2279168 1.72783779-.0846697 2.44967451.3930512.23332046.1456891.48135983.2663569.74.36.35777242.1131312.7487612.0151489 1.010901-.2533329.2621397-.2684819.350749-.6617008.229099-1.0166671-.66835376-1.9100277-1.18659448-3.869312-1.55-5.86-.26871409-1.5453399.69433425-3.03799863 2.2130643-3.43009761 1.51873-.39209898 3.0839909.44781214 3.5969357 1.93009761l.01.04c.5611065 1.5608146 1.2362614 3.078242 2.02 4.54 1.0346008-.4731692 1.8146396-1.3698493 2.14-2.46.2319704-1.1046866 1.0681876-1.983489 2.16-2.27 1.0288727-.261855 2.1196899.0353977 2.8734714.7830343.7537816.7476366 1.0599531 1.8359841.8065286 2.8669657-.6276419 2.4680811-2.191383 4.5949124-4.36 5.93-.2946107.1935232-.4655774.5278579-.45.88.0084148.1319466.042377.2610029.1.38.14.28.3.62.47.99.43.92.93 2.01 1.23 2.79.27.7.52 1.42.73 2.14.146802.5283771.6880764.8433811 1.22.71 1.4315105-.3499712 2.7455896-1.0708177 3.81-2.09z" fill="#ff5364"/><path id="Shape" d="m17.19 34.95c-.752534.1333591-1.5157725.1969623-2.28.19-.5547966-.0013631-1.1090519-.034752-1.66-.1.4832819-.064495.8526119-.4632034.88-.95.02-.35.04-.69.04-.98.8817331.057432 1.7671133.0171874 2.64-.12.54103-.1039115 1.0641955.249337 1.17.79.053844.260266.0003375.5312471-.14839.7515144-.1487276.2202674-.3800793.3711649-.64161.4184856z" fill="#df4d60"/><path id="Shape" d="m20.67 22.91c-1.0000868.5347997-2.0929.8741827-3.22 1-.5522847 0-1-.4477153-1-1s.4477153-1 1-1c.824282-.1391593 1.6210077-.4092359 2.36-.8l.65-.38c-.3532584.2876902-.4610826.7811932-.26 1.19.14.28.3.62.47.99z" fill="#df4d60"/><g fill="#fb7b76"><circle id="Oval" cx="17" cy="44" r="1"/><circle id="Oval" cx="20" cy="40" r="1"/><circle id="Oval" cx="20" cy="32" r="1"/><circle id="Oval" cx="18" cy="27" r="1"/><circle id="Oval" cx="13" cy="22" r="1"/></g><circle id="Oval" cx="5" cy="6" fill="#3b97d3" r="2"/><circle id="Oval" cx="16" cy="3" fill="#3b97d3" r="3"/><circle id="Oval" cx="9" cy="2" fill="#2980ba" r="1"/><path id="Shape" d="m49.77 6.93c1.5542465-1.75481147 3.9559107-2.49882621 6.23-1.93 0 0-1 1-1 4s1 4 1 4c-2.2740893.5688262-4.6757535-.1751885-6.23-1.93z" fill="#2fa8cc"/><path id="Shape" d="m39.77 22.93c1.5542465-1.7548115 3.9559107-2.4988262 6.23-1.93 0 0-1 1-1 4s1 4 1 4c-2.2740893.5688262-4.6757535-.1751885-6.23-1.93z" fill="#2fa8cc"/><path id="Shape" d="m46.23 40.07c-.6206666.7029611-1.3917669 1.2570185-2.256 1.621-1.2631605.5015488-2.648494.6092659-3.974.309.2187308-.2586656.3881976-.5552324.5-.875.3627831-1.0006756.532449-2.0610873.5-3.125.032449-1.0639127-.1372169-2.1243244-.5-3.125-.1118024-.3197676-.2812692-.6163344-.5-.875 1.3254646-.3008341 2.7109682-.1931037 3.974.309.8642331.3639815 1.6353334.9180389 2.256 1.621z" fill="#2fa8cc"/><circle id="Oval" cx="33" cy="9" fill="#2980ba" r="1"/><circle id="Oval" cx="35" cy="5" fill="#3b97d3" r="1"/><path id="Shape" d="m59 55c0 1.6568542-1.3431458 3-3 3h-52c-1.35121645.0008655-2.53626433-.9016921-2.8945417-2.2045444-.35827737-1.3028522.19864237-2.6844416 1.36030571-3.3746045 1.16166335-.690163 2.64135967-.5185602 3.61423599.4191489-.05726677-.2762377-.08409351-.5579185-.08-.84-.00176012-2.2574908 1.51085537-4.2355655 3.68993183-4.8253907 2.17907647-.5898252 4.48291367.3552247 5.62006817 2.3053907h.01c.5740069-.3577279 1.1882633-.6463948 1.83-.86 1.1740474-.3921152 2.4022616-.5979423 3.64-.61.0696736-.0083174.1398513-.0116592.21-.01 1.7173069-.0232952 3.4172333.3461054 4.97 1.08.6090837.2927073 1.1717781.6734526 1.67 1.13l.01.01c1.4544667-1.5299412 3.3809418-2.5266367 5.47-2.83 1.2764948-.2629885 2.576701-.3936793 3.88-.39 2.3073566-.0425687 4.5975795.4038885 6.72 1.31.6439237.2811414 1.2489112.6441338 1.8 1.08l.01.01c1.4156065-1.3607862 3.496666-1.7670144 5.3201096-1.0384992 1.8234436.7285153 3.0516699 2.4568932 3.1398904 4.4184992.8773907-.7990942 2.1439458-1.0045409 3.2289432-.5237636 1.0849973.4807773 1.783618 1.5570204 1.7810568 2.7437636z" fill="#f3d55b"/><path id="Shape" d="m18.1 51.91c-.0082843.5522847-.4627153.9932843-1.015.985s-.9932843-.4627153-.985-1.015c.0154811-.592258-.1099631-1.1797207-.366-1.714-.116966-.2407185-.2555342-.4703266-.414-.686.5740069-.3577279 1.1882633-.6463948 1.83-.86.6405727.976059.9716739 2.1227147.95 3.29z" fill="#f0c419"/><path id="Shape" d="m45.52 49.39c-.7798246.5945633-1.3194191 1.4501046-1.52 2.41-.099165.4616905-.5077811.7910852-.98.79-.0672762.0027973-.1346099-.0039361-.2-.02-.2599387-.0529946-.4881678-.2071045-.6344551-.428411-.1462874-.2213065-.1986434-.4916715-.1455449-.751589.2470287-1.1687635.831087-2.2395371 1.68-3.08.6439237.2811414 1.2489112.6441338 1.8 1.08z" fill="#f0c419"/><path id="Shape" d="m27.64 50.21c-.3539293.3554208-.5640507.8290843-.59 1.33-.0108913.5444587-.4554324.9801089-1 .98h-.01c-.2660666.0000543-.520956-.1069899-.7072028-.2969993-.1862468-.1900093-.2881723-.4469884-.2827972-.7130007.0229954-.8907417.347316-1.7473709.92-2.43.6090837.2927073 1.1717781.6734526 1.67 1.13z" fill="#f0c419"/><path id="Shape" d="m45.482 36.741c-.6427926.7162647-.6427926 1.8017353 0 2.518.7929924.9203701 1.7003402 1.7356389 2.7 2.426 2.2437611 1.7544233 5.3942389 1.7544233 7.638 0 .9996598-.6903611 1.9070076-1.5056299 2.7-2.426.6427926-.7162647.6427926-1.8017353 0-2.518-.7929924-.9203701-1.7003402-1.7356389-2.7-2.426-2.2437611-1.7544233-5.3942389-1.7544233-7.638 0-.9996598.6903611-1.9070076 1.5056299-2.7 2.426z" fill="#67b9cc"/><path id="Shape" d="m49 45c-.4907827.0003557-.9092874-.3554987-.9878345-.8399553-.0785471-.4844565.2060815-.954313.6718345-1.1090447.8421704-.2210529 1.579835-.7311176 2.084-1.441.1244267-.1920982.203743-.4098761.232-.637.0074559-.5522847.4612153-.9939558 1.0135-.9865.5522847.0074559.9939558.4612153.9865 1.0135-.0275551.5823321-.2060626 1.1474911-.518 1.64-.7396843 1.1288212-1.8651446 1.9496322-3.166 2.309-.1019116.0338571-.2086115.0510777-.316.051z" fill="#2fa8cc"/><path id="Shape" d="m53 37c-.0001019.4770802.3368207.8877939.8047155.9809602.4678948.0931664.9364432-.1571635 1.1190942-.5978948.1826511-.4407313.0285326-.9491112-.3681009-1.2142288-.3966335-.2651177-.9253112-.2131323-1.2627088.1241634-.1875494.1874927-.2929434.4418052-.293.707z" fill="#3f5c6c"/><path id="Shape" d="m40.518 23.741c.6427926.7162647.6427926 1.8017353 0 2.518-1.295 1.481-3.729 3.741-6.518 3.741s-5.223-2.26-6.518-3.741c-.6427926-.7162647-.6427926-1.8017353 0-2.518 1.295-1.481 3.729-3.741 6.518-3.741s5.223 2.26 6.518 3.741z" fill="#67b9cc"/><path id="Shape" d="m37 32c-.1073885.0000777-.2140884-.0171429-.316-.051-3.642-1.214-3.684-3.838-3.684-3.949-.0063513-.5522847.4362153-1.0051487.9885-1.0115.5522847-.0063512 1.0051487.4362153 1.0115.9885.006.092.139 1.349 2.316 2.074.465753.1547317.7503816.6245882.6718345 1.1090447-.0785471.4844566-.4970518.840311-.9878345.8399553z" fill="#2fa8cc"/><circle id="Oval" cx="32" cy="24" fill="#3f5c6c" r="1"/><path id="Shape" d="m50.518 7.741c.6427926.71626473.6427926 1.80173527 0 2.518-1.295 1.481-3.729 3.741-6.518 3.741s-5.223-2.26-6.518-3.741c-.6427926-.71626473-.6427926-1.80173527 0-2.518 1.295-1.481 3.729-3.741 6.518-3.741s5.223 2.26 6.518 3.741z" fill="#67b9cc"/><path id="Shape" d="m47 16c-.1073885.0000777-.2140884-.0171429-.316-.051-3.642-1.214-3.684-3.838-3.684-3.949-.0063513-.5522847.4362153-1.0051487.9885-1.0115.5522847-.0063512 1.0051487.4362153 1.0115.9885.006.092.139 1.349 2.316 2.074.465753.1547317.7503816.6245882.6718345 1.1090447-.0785471.4844566-.4970518.840311-.9878345.8399553z" fill="#2fa8cc"/><circle id="Oval" cx="42" cy="8" fill="#3f5c6c" r="1"/></g></g></svg>