<svg height="512" viewBox="0 0 58 57" width="512" xmlns="http://www.w3.org/2000/svg"><g id="Page-1" fill="none" fill-rule="evenodd"><g id="014---Reef-Fish" fill-rule="nonzero" transform="translate(-1)"><path id="Shape" d="m13.54 30.7c-3.54-3.56-3.54-7.03-3.54-9.7 0-3 5-6 9-8 1.4831449-.7064218 2.4422665-2.187646 2.48-3.83 0 0 7.52 3.274 2.853 9.83-3.1519336 4.2887721-6.7719346 8.2129833-10.793 11.7z" fill="#35495e"/><path id="Shape" d="m59 30c.0125789.680354-.0957701 1.3575354-.32 2-.83 2.42-3.26 3.38-5.68 5-3 2-8 9-15 10s-13 7-19 8-8 1-6-4c1.201892-2.8796213 1.201892-6.1203787 0-9-1.3563945-.8596962-2.1260798-2.3990667-2-4-.1260798-1.6009333.6436055-3.1403038 2-4 .141-1.2.328-2.29.547-3.3 1.175-5.424 12.842-6.7 12.313-16.48-.062-1.154-3.782-4.24-4.38-5.052-3.824-5.186-11.021-5.303-14.48-6.168-4-1-3-3-2-3 23 0 38 12 41 18s7 10 9 10 4 0 4 2z" fill="#ecf0f1"/><path id="Shape" d="m31.67 46.3v2.82c-.97 3.71-3.34 7.88 3.33 7.88 8.005 0 9-15.015 9.005-15.0000112z" fill="#35495e"/><path id="Shape" d="m13 42-7.909 4.842c-.49209263.2918972-1.12470513.1699271-1.473-.284-1.77582107-2.4941744-2.69447941-5.4971836-2.618-8.558-.07647941-3.0608164.84217893-6.0638256 2.618-8.558.34829487-.4539271.98090737-.5758972 1.473-.284l7.909 4.842z" fill="#35495e"/><path id="Shape" d="m59 30c.0125789.680354-.0957701 1.3575354-.32 2-1.1408995-.0285475-2.2647392.2811173-3.23.89-.1383827.0738739-.2931427.1117042-.45.11-.3778306.0033632-.7240094-.2105675-.89-.55-.1205304-.2358372-.1418525-.5100523-.0592264-.7616863s.2623528-.459833.4992264-.5783137c1.2570567-.756911 2.7029981-1.1418019 4.17-1.11z" fill="#bdc3c7"/><circle id="Oval" cx="56" cy="21" fill="#3b97d3" r="2"/><circle id="Oval" cx="51" cy="10" fill="#3b97d3" r="3"/><circle id="Oval" cx="57" cy="14" fill="#2980ba" r="1"/><g fill="#2c3e50"><path id="Shape" d="m6 39h-2c-.55228475 0-1-.4477153-1-1s.44771525-1 1-1h2c.55228475 0 1 .4477153 1 1s-.44771525 1-1 1z"/><path id="Shape" d="m7 36c-.15439312.001545-.30704696-.0326823-.446-.1l-2-1c-.49429485-.2468713-.69487128-.8477051-.448-1.342s.84770515-.6948713 1.342-.448l2 1c.40984629.2099351.6233472.6726076.51713812 1.1206772-.10620909.4480696-.50466718.7656851-.96513812.7693228z"/><path id="Shape" d="m5 43c-.46842924.0057459-.87806423-.3144677-.98557503-.7704286-.10751079-.455961.11592176-.9254452.53757503-1.1295714l2-1c.49429485-.2468713 1.09512872-.0462949 1.342.448s.04629485 1.0951287-.448 1.342l-2 1c-.1381167.0707786-.29081172.1084388-.446.11z"/></g><path id="Shape" d="m51 26c0 2.209139-1.790861 4-4 4s-4-1.790861-4-4 1.790861-4 4-4c.5333995-.0033031 1.0615192.1057281 1.55.32.717219 1.0576563 1.5163392 2.0573925 2.39 2.99.0406788.2277317.0607599.4586649.06.69z" fill="#95a5a5"/><path id="Shape" d="m44.92 44.01c-2.035606 1.5335856-4.4081165 2.5587021-6.92 2.99-4.54.65-8.66 3.4-12.63 5.52 2.84-3.82 5.05-9.98 6.63-15.52 2-7 5-15 4-22-.54-3.76-3.97-7.53-7.03-10.19 3.5729172 1.52269174 6.953088 3.46284937 10.07 5.78v.01c2.569825 4.7282023 3.9302239 10.0186423 3.96 15.4 0 2-1 4 1 9 1.4 3.49 1.82 6.5.92 9.01z" fill="#3f5c6c"/><path id="Shape" d="m13.72 48.48c.3982591-2.1839536.1479499-4.4367363-.72-6.48-1.3563945-.8596962-2.1260798-2.3990667-2-4-.1260798-1.6009333.6436055-3.1403038 2-4 2-17 13-14 10-22-.8878736-2.43496708-2.5908679-4.48774655-4.82-5.81 4.97 1.41 11.21 4.3 11.82 9.81.83 7.47-9.37 24.59-16.28 32.48z" fill="#3f5c6c"/><circle id="Oval" cx="47" cy="26" fill="#ecf0f1" r="3"/><circle id="Oval" cx="48" cy="26" fill="#2c3e50" r="2"/><circle id="Oval" cx="47" cy="25" fill="#ecf0f1" r="1"/></g></g></svg>