<svg height="512" viewBox="0 0 57 59" width="512" xmlns="http://www.w3.org/2000/svg"><g id="Page-1" fill="none" fill-rule="evenodd"><g id="026---Jellyfish" fill-rule="nonzero"><g fill="#f29c1f"><path id="Shape" d="m41 39c-.5522847 0-1-.4477153-1-1v-20c0-.5522847.4477153-1 1-1s1 .4477153 1 1v20c0 .5522847-.4477153 1-1 1z"/><path id="Shape" d="m45 39c-.5522847 0-1-.4477153-1-1v-20c0-.5522847.4477153-1 1-1s1 .4477153 1 1v20c0 .5522847-.4477153 1-1 1z"/><path id="Shape" d="m35 31c-1.6534434-.0082058-2.9917942-1.3465566-3-3v-3c0-.5522847.4477153-1 1-1s1 .4477153 1 1v3c-.0019672.2605963.1015486.5109097.287.694.1853095.1959452.4433082.3066712.713.306.5522847 0 1-.4477153 1-1v-10c0-.5522847.4477153-1 1-1s1 .4477153 1 1v10c0 1.6568542-1.3431458 3-3 3z"/><path id="Shape" d="m51 34c-1.6568542 0-3-1.3431458-3-3v-13c0-.5522847.4477153-1 1-1s1 .4477153 1 1v13c0 .5522847.4477153 1 1 1 .2609224.0026276.5116037-.1014015.694-.288.195692-.185071.3063954-.4426555.306-.712v-3c0-.5522847.4477153-1 1-1s1 .4477153 1 1v3c-.0092882 1.6529917-1.3470083 2.9907118-3 3z"/><path id="Shape" d="m16 59c-.5522847 0-1-.4477153-1-1v-20c0-.5522847.4477153-1 1-1s1 .4477153 1 1v20c0 .5522847-.4477153 1-1 1z"/><path id="Shape" d="m12 59c-.5522847 0-1-.4477153-1-1v-20c0-.5522847.4477153-1 1-1s1 .4477153 1 1v20c0 .5522847-.4477153 1-1 1z"/><path id="Shape" d="m22 51c-1.6568542 0-3-1.3431458-3-3v-10c0-.5522847.4477153-1 1-1s1 .4477153 1 1v10c0 .5522847.4477153 1 1 1 .2609224.0026276.5116037-.1014015.694-.288.195692-.185071.3063954-.4426555.306-.712v-3c0-.5522847.4477153-1 1-1s1 .4477153 1 1v3c-.0092882 1.6529917-1.3470083 2.9907118-3 3z"/><path id="Shape" d="m6 54c-1.65344336-.0082058-2.99179417-1.3465566-3-3v-3c0-.5522847.44771525-1 1-1s1 .4477153 1 1v3c-.0019672.2605963.10154856.5109097.287.694.18530946.1959452.44330818.3066712.713.306.55228475 0 1-.4477153 1-1v-13c0-.5522847.44771525-1 1-1s1 .4477153 1 1v13c0 1.6568542-1.34314575 3-3 3z"/></g><path id="Shape" d="m32 14v4.248c.0285512.655171.3875015 1.2511274.9532861 1.5827175.5657845.3315902 1.2611461.3535359 1.8467139.0582825.5478048-.2580208 1.1821952-.2580208 1.73 0l1.936.918c.5475835.2590082 1.1824165.2590082 1.73 0l1.937-.918c.5478048-.2580208 1.1821952-.2580208 1.73 0l1.937.918c.5475835.2590082 1.1824165.2590082 1.73 0l1.936-.918c.5478048-.2580208 1.1821952-.2580208 1.73 0 .5859039.2970933 1.2826245.2761136 1.8495908-.0556952.5669664-.3318088.9264818-.9289757.9544092-1.5853048v-4.248z" fill="#f0c419"/><path id="Shape" d="m3 34v4.248c.02855125.655171.38750155 1.2511274.95328609 1.5827175.56578455.3315902 1.26114612.3535359 1.84671391.0582825.54780479-.2580208 1.18219521-.2580208 1.73 0l1.936.918c.5475835.2590082 1.1824165.2590082 1.73 0l1.937-.918c.5478048-.2580208 1.1821952-.2580208 1.73 0l1.937.918c.5475835.2590082 1.1824165.2590082 1.73 0l1.936-.918c.5478048-.2580208 1.1821952-.2580208 1.73 0 .5859039.2970933 1.2826245.2761136 1.8495908-.0556952.5669664-.3318088.9264818-.9289757.9544092-1.5853048v-4.248z" fill="#f0c419"/><circle id="Oval" cx="33" cy="42" fill="#3b97d3" r="3"/><circle id="Oval" cx="23" cy="3" fill="#3b97d3" r="3"/><circle id="Oval" cx="30" cy="51" fill="#3b97d3" r="2"/><circle id="Oval" cx="17" cy="10" fill="#3b97d3" r="2"/><circle id="Oval" cx="36" cy="49" fill="#2980ba" r="1"/><circle id="Oval" cx="24" cy="11" fill="#2980ba" r="1"/><path id="Shape" d="m41 0h4c6.627417 0 12 5.372583 12 12v2c0 1.1045695-.8954305 2-2 2h-24c-1.1045695 0-2-.8954305-2-2v-2c0-6.627417 5.372583-12 12-12z" fill="#ff5364"/><circle id="Oval" cx="43" cy="6" fill="#f3d55b" r="2"/><circle id="Oval" cx="35" cy="10" fill="#f3d55b" r="2"/><circle id="Oval" cx="51" cy="10" fill="#f3d55b" r="2"/><circle id="Oval" cx="37" cy="5" fill="#df4d60" r="1"/><circle id="Oval" cx="49" cy="5" fill="#df4d60" r="1"/><path id="Shape" d="m12 20h4c6.627417 0 12 5.372583 12 12v2c0 1.1045695-.8954305 2-2 2h-24c-1.1045695 0-2-.8954305-2-2v-2c0-6.627417 5.372583-12 12-12z" fill="#ff5364"/><circle id="Oval" cx="14" cy="26" fill="#f3d55b" r="2"/><circle id="Oval" cx="6" cy="30" fill="#f3d55b" r="2"/><circle id="Oval" cx="22" cy="30" fill="#f3d55b" r="2"/><circle id="Oval" cx="8" cy="25" fill="#df4d60" r="1"/><circle id="Oval" cx="20" cy="25" fill="#df4d60" r="1"/></g></g></svg>