<?xml version="1.0" encoding="iso-8859-1"?>
<!-- Generator: Adobe Illustrator 19.0.0, SVG Export Plug-In . SVG Version: 6.00 Build 0)  -->
<svg version="1.1" id="Capa_1" xmlns="http://www.w3.org/2000/svg" xmlns:xlink="http://www.w3.org/1999/xlink" x="0px" y="0px"
	 viewBox="0 0 481.837 481.837" style="enable-background:new 0 0 481.837 481.837;" xml:space="preserve">
<g>
	<path style="fill:#79DCA0;" d="M255.736,5.975c-8.282-7.966-21.384-7.966-29.666,0c-17.559,16.866-27.482,40.147-27.482,64.482
		v79.661h84.616V70.456C283.203,46.121,273.28,22.84,255.736,5.975z"/>
	<path style="fill:#79DCA0;" d="M384.971,103.27c-74.074-52.314-78.246,4.171-78.246,4.171s0.467,42.135,20.375,40.749
		c19.908-1.385,121.766,57.871,121.766,57.871c13.884,8.328,17.137,0,17.137,0S459.045,155.584,384.971,103.27z"/>
	<path style="fill:#79DCA0;" d="M309.918,392.67l-46.758,25.931c0,0,5.557,46.291,14.351,46.758s21.293,9.728,21.293,9.728
		c4.533,5.828,10.27,7.243,15.797,6.611c11.866-1.355,20.917-11.55,22.076-23.447C341.496,409.039,309.918,392.67,309.918,392.67z"
		/>
	<path style="fill:#79DCA0;" d="M96.851,103.27c-74.074,52.314-81.016,102.792-81.016,102.792s3.238,8.328,17.137,0
		c0,0,101.858-59.272,121.766-57.871c19.908,1.385,20.375-40.749,20.375-40.749S170.925,50.94,96.851,103.27z"/>
	<path style="fill:#79DCA0;" d="M171.889,392.67c0,0-31.578,16.369-26.76,65.581c1.16,11.881,10.21,22.091,22.076,23.447
		c5.527,0.632,11.264-0.783,15.797-6.611c0,0,12.499-9.261,21.293-9.728c8.794-0.467,14.351-46.758,14.351-46.758L171.889,392.67z"
		/>
</g>
<path style="fill:#4AC197;" d="M318.035,105.047c0,0-26.609-27.211-40.493-14.953c-13.869,12.198-36.668,11.61-36.668,11.61
	s-22.724,0.602-36.608-11.61c-13.869-12.258-40.493,14.953-40.493,14.953s-87.733,83.787-60.521,189.229
	c0,0,25.54,123.211,137.623,147.064c112.143-23.868,137.683-147.064,137.683-147.064
	C405.707,188.834,318.035,105.047,318.035,105.047z"/>
<path style="fill:#44B78B;" d="M381.703,227.053l-16.233,28.115h-54.498l-27.272-47.24l27.272-47.24h47.797
	c-3.494-6.46-7.093-12.469-10.662-17.935h-37.12L279.74,88.617c-0.753,0.422-1.491,0.873-2.184,1.476
	c-13.869,12.198-36.668,11.61-36.668,11.61s-22.724,0.602-36.608-11.61c-0.693-0.617-1.446-1.069-2.199-1.491l-31.262,54.136
	h-37.135c-3.569,5.481-7.183,11.475-10.677,17.935h47.797l27.272,47.24l-27.272,47.24h-54.483l-16.233-28.115
	c-1.611,10.451-2.319,21.368-1.867,32.648l2.56,4.427l-2.063,3.569c0.768,8.674,2.199,17.544,4.533,26.579
	c0,0,0.09,0.407,0.226,1.039l12.83-22.212h54.498l27.272,47.24l-27.272,47.24h-35.192c4.036,6.008,8.508,12.047,13.493,17.935h21.7
	l21.203,36.728c14.11,8.418,30.268,15.149,48.866,19.095c18.613-3.96,34.786-10.692,48.911-19.11l21.188-36.713h21.7
	c4.984-5.903,9.472-11.927,13.508-17.935h-35.208l-27.272-47.24l27.272-47.24h54.498l12.845,22.242
	c0.151-0.648,0.241-1.069,0.241-1.069c2.334-9.035,3.75-17.905,4.518-26.579l-2.063-3.569l2.56-4.442
	C384.022,248.422,383.33,237.504,381.703,227.053z M186.375,151.669l27.241-47.194h54.543l27.241,47.194l-27.302,47.285h-54.438
	L186.375,151.669z M295.416,376.587l-27.241,47.194h-54.543l-27.241-47.194l27.302-47.285h54.438L295.416,376.587z M268.115,311.368
	h-54.438l-27.272-47.24l27.272-47.24h54.453l27.272,47.24L268.115,311.368z"/>
<g>
	<circle style="fill:#454545;" cx="222.396" cy="38.366" r="7.575"/>
	<circle style="fill:#454545;" cx="259.396" cy="38.366" r="7.575"/>
</g>
<g>
</g>
<g>
</g>
<g>
</g>
<g>
</g>
<g>
</g>
<g>
</g>
<g>
</g>
<g>
</g>
<g>
</g>
<g>
</g>
<g>
</g>
<g>
</g>
<g>
</g>
<g>
</g>
<g>
</g>
</svg>
